<svg width="24" height="24" viewBox="0 0 24 24" fill="none" xmlns="http://www.w3.org/2000/svg">
<path fill-rule="evenodd" clip-rule="evenodd" d="M13.935 1.63324C12.8174 0.689959 11.1826 0.689961 10.065 1.63324L9.04719 2.49231C8.57219 2.89323 7.98438 3.13672 7.365 3.18911L6.03786 3.30134C4.58061 3.42458 3.42458 4.58061 3.30134 6.03786L3.18911 7.365C3.13672 7.98438 2.89323 8.57219 2.49231 9.0472L1.63324 10.065C0.689959 11.1826 0.689961 12.8174 1.63324 13.935L2.49231 14.9528C2.89323 15.4278 3.13672 16.0157 3.18911 16.635L3.30134 17.9622C3.42458 19.4195 4.58061 20.5755 6.03786 20.6987L7.365 20.8109C7.98438 20.8634 8.57219 21.1068 9.0472 21.5078L10.065 22.3668C11.1826 23.31 12.8174 23.31 13.935 22.3668L14.9528 21.5078C15.4278 21.1068 16.0157 20.8634 16.635 20.8109L17.9622 20.6987C19.4195 20.5755 20.5755 19.4195 20.6987 17.9622L20.8109 16.635C20.8634 16.0157 21.1068 15.4278 21.5078 14.9528L22.3668 13.935C23.31 12.8174 23.31 11.1826 22.3668 10.065L21.5078 9.04719C21.1068 8.57219 20.8634 7.98438 20.8109 7.365L20.6987 6.03786C20.5755 4.58061 19.4195 3.42458 17.9622 3.30134L16.635 3.18911C16.0157 3.13672 15.4278 2.89323 14.9528 2.49231L13.935 1.63324ZM17.4552 9.95466C17.9825 9.42745 17.9825 8.57268 17.4552 8.04548C16.9281 7.51826 16.0733 7.51826 15.546 8.04548L10.5006 13.0909L8.45525 11.0455C7.92804 10.5183 7.07327 10.5183 6.54606 11.0455C6.01884 11.5727 6.01884 12.4275 6.54606 12.9547L9.54606 15.9546C10.0733 16.4819 10.928 16.4819 11.4552 15.9546L17.4552 9.95466Z" fill="#0F6937"/>
</svg>
