<svg width="56" height="57" viewBox="0 0 56 57" fill="none" xmlns="http://www.w3.org/2000/svg">
<path d="M55.8152 31.7795C55.7928 31.6591 55.776 31.5415 55.7508 31.4239C55.622 30.7995 55.4456 30.1891 55.2132 29.6011C55.1992 29.5647 55.1796 29.5311 55.1656 29.4947C54.6476 28.2207 53.9 27.0503 52.9536 26.0395C53.116 25.3283 53.2 24.6087 53.2 23.8835C53.2 23.2171 53.1328 22.5591 53.0012 21.9235C52.9368 21.6015 52.8108 21.3047 52.7128 20.9939C52.6176 20.6915 52.5532 20.3779 52.43 20.0867C51.926 18.8939 51.1924 17.8243 50.2852 16.9283C50.3608 16.4439 50.4 15.9623 50.4 15.4835C50.4 11.3787 47.852 7.7835 44.1308 6.3499C42.7 2.6315 39.1048 0.0834961 35 0.0834961C32.256 0.0834961 29.7808 1.2231 28 3.0459C26.2192 1.2231 23.744 0.0834961 21 0.0834961C16.8952 0.0834961 13.3 2.6315 11.8692 6.3499C8.148 7.7835 5.6 11.3787 5.6 15.4835C5.6 15.9623 5.6392 16.4439 5.712 16.9255C4.8048 17.8215 4.0712 18.8939 3.5672 20.0839C3.4496 20.3639 3.388 20.6691 3.2956 20.9603C3.1948 21.2795 3.066 21.5903 2.9988 21.9235C2.8672 22.5619 2.8 23.2171 2.8 23.8835C2.8 24.6087 2.884 25.3255 3.0464 26.0339L3.038 26.0451C2.0944 27.0559 1.3468 28.2235 0.8316 29.4975C0.8176 29.5311 0.8008 29.5619 0.7868 29.5955C0.5544 30.1863 0.378 30.7995 0.2464 31.4239C0.2212 31.5415 0.2044 31.6591 0.182 31.7767C0.0756002 32.4039 0 33.0395 0 33.6835C0 34.3695 0.0840001 35.0331 0.2016 35.6883C0.2324 35.8507 0.2632 36.0103 0.2996 36.1727C0.4452 36.8055 0.6244 37.4271 0.8736 38.0179C0.8904 38.0571 0.9156 38.0935 0.9324 38.1355C1.1676 38.6759 1.456 39.1883 1.7752 39.6839C1.8816 39.8491 1.9908 40.0115 2.1028 40.1711C2.3968 40.5799 2.7132 40.9663 3.0604 41.3331C3.262 41.5459 3.472 41.7419 3.6904 41.9379C3.9732 42.1927 4.2644 42.4391 4.5724 42.6659C4.8496 42.8703 5.1352 43.0579 5.432 43.2371C5.4908 43.2707 5.5412 43.3155 5.6 43.3491C5.6 43.3967 5.6 43.4387 5.6 43.4863C5.6 48.4451 9.2988 52.5527 14.084 53.1995C15.9152 55.0447 18.3708 56.0835 21 56.0835C23.744 56.0835 26.2192 54.9439 28 53.1211C29.7808 54.9439 32.256 56.0835 35 56.0835C37.6292 56.0835 40.0848 55.0447 41.916 53.1967C46.7012 52.5499 50.4 48.4423 50.4 43.4835C50.4 43.4359 50.4 43.3939 50.4 43.3463C50.4588 43.3127 50.5092 43.2707 50.568 43.2343C50.8648 43.0551 51.1504 42.8675 51.4276 42.6631C51.7384 42.4363 52.0268 42.1899 52.3096 41.9351C52.5252 41.7391 52.738 41.5431 52.9396 41.3303C53.2868 40.9663 53.6032 40.5771 53.8972 40.1683C54.012 40.0087 54.1212 39.8463 54.2248 39.6811C54.5412 39.1855 54.8296 38.6731 55.0676 38.1327C55.0844 38.0935 55.1096 38.0571 55.1264 38.0151C55.3756 37.4243 55.5548 36.8027 55.7004 36.1699C55.7368 36.0103 55.7676 35.8507 55.7984 35.6855C55.916 35.0331 56 34.3695 56 33.6835C56 33.0395 55.9244 32.4039 55.8152 31.7795ZM25.2 46.2835C25.2 48.5991 23.3156 50.4835 21 50.4835C19.6896 50.4835 18.4744 49.8675 17.6624 48.7923C17.1332 48.0923 16.3072 47.6807 15.428 47.6807C15.3944 47.6807 15.3608 47.6807 15.3244 47.6835C13.524 47.6499 12.012 46.4739 11.4492 44.8583C12.9136 44.8247 14.336 44.5363 15.6772 43.9539C17.094 43.3351 17.7408 41.6831 17.1248 40.2691C16.506 38.8495 14.8568 38.1999 13.44 38.8187C12.7316 39.1267 11.9784 39.2835 11.2 39.2835C10.6288 39.2835 10.0884 39.1715 9.5704 39.0147C9.5508 39.0091 9.5396 38.9923 9.52 38.9867C8.358 38.6171 7.3892 37.9059 6.7032 36.9903C6.6948 36.9791 6.6836 36.9679 6.6752 36.9539C6.3616 36.5283 6.1264 36.0523 5.9444 35.5511C5.9108 35.4587 5.8856 35.3635 5.8576 35.2683C5.7036 34.7615 5.6 34.2323 5.6 33.6835C5.6 32.9247 5.7876 32.1939 6.076 31.5107C6.4708 30.5923 7.084 29.7747 7.9408 29.1559C8.2544 28.9291 8.4896 28.6407 8.6772 28.3271C8.6828 28.3187 8.6828 28.3103 8.6884 28.3019C8.8592 28.0135 8.9684 27.7027 9.0272 27.3779C9.0412 27.3051 9.0356 27.2323 9.044 27.1567C9.0692 26.8991 9.0664 26.6471 9.0188 26.3867C8.9992 26.2691 8.96 26.1599 8.9264 26.0479C8.8872 25.9275 8.8816 25.8015 8.8256 25.6839C8.5428 25.0875 8.4 24.4799 8.4 23.8835C8.4 23.5503 8.4476 23.2283 8.526 22.9119C8.5456 22.8307 8.5736 22.7551 8.5988 22.6767C8.6716 22.4359 8.764 22.2007 8.8788 21.9767C8.9124 21.9123 8.946 21.8479 8.9824 21.7863C9.3184 21.2151 9.786 20.7139 10.374 20.3415C10.374 20.3415 10.3796 20.3359 10.3852 20.3331C11.0292 19.9271 11.7852 19.6835 12.6 19.6835C13.174 19.6835 13.7256 19.7955 14.2436 20.0167C15.6632 20.6327 17.3096 19.9663 17.92 18.5467C18.5276 17.1243 17.8696 15.4779 16.4472 14.8703C15.2292 14.3495 13.9356 14.0835 12.6 14.0835C12.1996 14.0835 11.816 14.1563 11.4268 14.2011C11.8916 12.7703 13.0844 11.6503 14.6328 11.3647C15.7752 11.1547 16.6712 10.2587 16.8812 9.1163C17.248 7.1283 18.9812 5.6835 21 5.6835C23.3156 5.6835 25.2 7.5679 25.2 9.8835V46.2835ZM50.1452 35.2683C50.1172 35.3635 50.0892 35.4587 50.0584 35.5511C49.8764 36.0523 49.6412 36.5283 49.3276 36.9539C49.3192 36.9651 49.308 36.9763 49.2996 36.9903C48.6136 37.9059 47.6448 38.6199 46.4828 38.9867C46.4632 38.9923 46.452 39.0091 46.4324 39.0147C45.9116 39.1715 45.3712 39.2835 44.8 39.2835C44.0216 39.2835 43.2684 39.1267 42.5628 38.8187C41.1404 38.1943 39.494 38.8523 38.878 40.2691C38.2592 41.6859 38.906 43.3379 40.3256 43.9539C41.664 44.5363 43.0892 44.8247 44.5536 44.8583C43.988 46.4767 42.4788 47.6527 40.6784 47.6835C39.7376 47.6023 38.8892 48.0671 38.3404 48.7923C37.5256 49.8675 36.3104 50.4835 35 50.4835C32.6844 50.4835 30.8 48.5991 30.8 46.2835V9.8835C30.8 7.5679 32.6844 5.6835 35 5.6835C37.0188 5.6835 38.752 7.1283 39.1188 9.1191C39.3288 10.2615 40.2248 11.1575 41.3672 11.3675C42.9156 11.6531 44.1084 12.7731 44.5732 14.2039C44.184 14.1563 43.8004 14.0835 43.4 14.0835C42.0644 14.0835 40.7708 14.3495 39.55 14.8703C38.1276 15.4779 37.4696 17.1243 38.0772 18.5467C38.6848 19.9663 40.3284 20.6355 41.7536 20.0167C42.2744 19.7955 42.826 19.6835 43.4 19.6835C44.2148 19.6835 44.9708 19.9271 45.6148 20.3303C45.6148 20.3303 45.6204 20.3359 45.626 20.3387C46.214 20.7111 46.6816 21.2123 47.0176 21.7835C47.054 21.8451 47.0876 21.9095 47.1212 21.9739C47.2388 22.1979 47.3284 22.4331 47.404 22.6767C47.4264 22.7551 47.4572 22.8307 47.4768 22.9119C47.5524 23.2283 47.6 23.5503 47.6 23.8835C47.6 24.4827 47.4572 25.0875 47.1744 25.6811C47.1184 25.7987 47.1128 25.9247 47.0736 26.0451C47.0372 26.1599 47.0008 26.2691 46.9784 26.3867C46.9308 26.6443 46.928 26.8991 46.9532 27.1567C46.9616 27.2323 46.956 27.3051 46.97 27.3779C47.0288 27.7055 47.1408 28.0163 47.3116 28.3047C47.3172 28.3103 47.3172 28.3187 47.32 28.3271C47.5104 28.6407 47.7456 28.9319 48.0592 29.1559C48.9132 29.7719 49.5292 30.5923 49.924 31.5107C50.2124 32.1939 50.4 32.9247 50.4 33.6835C50.4 34.2323 50.2964 34.7615 50.1452 35.2683Z" fill="#0F6937"/>
</svg>
