<svg width="33" height="32" viewBox="0 0 33 32" fill="none" xmlns="http://www.w3.org/2000/svg">
<path d="M21.1561 10.999H23.6561C24.3192 10.999 24.9551 11.2624 25.4239 11.7313C25.8927 12.2001 26.1561 12.836 26.1561 13.499V26.499C26.1561 27.1621 25.8927 27.7979 25.4239 28.2668C24.9551 28.7356 24.3192 28.999 23.6561 28.999H8.65613C7.99309 28.999 7.3572 28.7356 6.88836 28.2668C6.41952 27.7979 6.15613 27.1621 6.15613 26.499V13.499C6.15613 12.836 6.41952 12.2001 6.88836 11.7313C7.3572 11.2624 7.99309 10.999 8.65613 10.999H11.1561" stroke="#666666" stroke-width="1.5" stroke-linecap="round" stroke-linejoin="round"/>
<path d="M11.1564 16.9944L16.1564 21.9944L21.1564 16.9944M16.1564 2.99438V20.9944" stroke="#666666" stroke-width="1.5" stroke-linecap="round" stroke-linejoin="round"/>
</svg>
