<svg width="24" height="25" viewBox="0 0 24 25" fill="none" xmlns="http://www.w3.org/2000/svg">
<path d="M21.376 1.5835H2.62403C2.19331 1.5835 1.78023 1.7546 1.47567 2.05916C1.1711 2.36373 1 2.77681 1 3.20752V21.9595C1 22.3902 1.1711 22.8033 1.47567 23.1078C1.78023 23.4124 2.19331 23.5835 2.62403 23.5835H21.376C21.8067 23.5835 22.2198 23.4124 22.5243 23.1078C22.8289 22.8033 23 22.3902 23 21.9595V3.20752C23 2.77681 22.8289 2.36373 22.5243 2.05916C22.2198 1.7546 21.8067 1.5835 21.376 1.5835ZM7.55722 20.3247H4.24958V9.81822H7.55722V20.3247ZM5.90111 8.36225C5.52592 8.36013 5.15976 8.24693 4.84884 8.03691C4.53792 7.82689 4.29619 7.52948 4.15414 7.18221C4.01209 6.83494 3.97609 6.45337 4.0507 6.08566C4.1253 5.71795 4.30715 5.38058 4.57331 5.11613C4.83947 4.85168 5.178 4.67199 5.54618 4.59975C5.91436 4.52751 6.29569 4.56596 6.64204 4.71023C6.98839 4.85451 7.28424 5.09815 7.49226 5.41041C7.70027 5.72267 7.81113 6.08955 7.81083 6.46475C7.81437 6.71594 7.7673 6.96528 7.67243 7.1979C7.57755 7.43052 7.43682 7.64165 7.25861 7.81872C7.0804 7.99579 6.86836 8.13517 6.63514 8.22855C6.40192 8.32193 6.15228 8.3674 5.90111 8.36225ZM19.7489 20.3339H16.4428V14.5941C16.4428 12.9013 15.7232 12.3788 14.7943 12.3788C13.8135 12.3788 12.851 13.1182 12.851 14.6368V20.3339H9.54333V9.82586H12.7242V11.2818H12.7669C13.0863 10.6356 14.2046 9.531 15.9111 9.531C17.7567 9.531 19.7504 10.6264 19.7504 13.8347L19.7489 20.3339Z" fill="#6B7280"/>
</svg>
