<svg width="20" height="21" viewBox="0 0 20 21" fill="none" xmlns="http://www.w3.org/2000/svg">
<g clip-path="url(#clip0_7_276)">
<path d="M17.418 3.7065C17.413 3.7045 17.408 3.7015 17.404 3.6995C17.306 3.6465 16.517 3.2595 15 3.1295V2.0835H16C16.552 2.0835 17 1.6365 17 1.0835C17 0.530496 16.552 0.0834961 16 0.0834961H14C13.448 0.0834961 13 0.530496 13 1.0835V3.0835H9.89C11.19 4.3555 12 6.1255 12 8.0835V13.0835H10V8.0835C10 5.3265 7.757 3.0835 5 3.0835C2.243 3.0835 0 5.3265 0 8.0835V14.0835C0 14.6365 0.448 15.0835 1 15.0835H9V19.0835C9 19.6365 9.448 20.0835 10 20.0835H12C12.552 20.0835 13 19.6365 13 19.0835V15.0835H19C19.553 15.0835 20 14.6355 20 14.0835V8.0835C20 6.2645 19.011 4.5865 17.418 3.7065ZM6 12.0835H4C3.448 12.0835 3 11.6365 3 11.0835C3 10.5305 3.448 10.0835 4 10.0835H6C6.552 10.0835 7 10.5305 7 11.0835C7 11.6365 6.552 12.0835 6 12.0835Z" fill="#9CA3AF"/>
</g>
<defs>
<clipPath id="clip0_7_276">
<rect width="20" height="20" fill="white" transform="translate(0 0.0834961)"/>
</clipPath>
</defs>
</svg>
