<svg width="20" height="21" viewBox="0 0 20 21" fill="none" xmlns="http://www.w3.org/2000/svg">
<g clip-path="url(#clip0_8_45661)">
<path d="M19.8168 8.43565C19.3311 5.90968 17.8882 3.66831 15.7887 2.17862C13.6892 0.688929 11.0951 0.0658231 8.547 0.439145C5.99888 0.812468 3.69328 2.15342 2.11064 4.18258C0.528004 6.21173 -0.209589 8.77256 0.0515635 11.3314C0.241914 13.041 0.866575 14.6737 1.86625 16.0744C2.86593 17.4751 4.20745 18.5974 5.76348 19.3348C7.07019 19.9789 8.50557 20.3202 9.96269 20.3333H9.97468C10.3727 20.335 10.767 20.2579 11.135 20.1064C11.5029 19.9549 11.8371 19.732 12.1183 19.4506C12.3983 19.1744 12.6205 18.8454 12.7721 18.4827C12.9236 18.12 13.0015 17.7308 13.0011 17.3377V16.479C12.9875 16.3378 13.003 16.1953 13.0466 16.0603C13.0902 15.9253 13.161 15.8006 13.2547 15.694C13.3484 15.5874 13.4629 15.501 13.5912 15.4402C13.7196 15.3794 13.859 15.3455 14.0009 15.3406H16.7004C17.3261 15.3445 17.937 15.1512 18.4464 14.7884C18.9558 14.4256 19.3377 13.9116 19.5379 13.3195C20.0381 11.7405 20.134 10.0613 19.8168 8.43565ZM4.50272 11.3464C4.30498 11.3464 4.11167 11.2879 3.94726 11.1781C3.78284 11.0684 3.65469 10.9125 3.57902 10.73C3.50334 10.5475 3.48354 10.3468 3.52212 10.1531C3.5607 9.95937 3.65592 9.78144 3.79575 9.64179C3.93557 9.50214 4.11372 9.40704 4.30767 9.36851C4.50161 9.32998 4.70264 9.34976 4.88533 9.42533C5.06802 9.50091 5.22417 9.6289 5.33403 9.79311C5.44389 9.95732 5.50253 10.1504 5.50253 10.3479C5.50253 10.6127 5.39719 10.8667 5.20969 11.054C5.02219 11.2412 4.76789 11.3464 4.50272 11.3464ZM7.20921 7.55893C7.06939 7.69861 6.89125 7.79374 6.69729 7.83229C6.50334 7.87085 6.3023 7.85109 6.11959 7.77552C5.93688 7.69995 5.78071 7.57197 5.67084 7.40775C5.56096 7.24353 5.50232 7.05046 5.50232 6.85296C5.50232 6.65545 5.56096 6.46238 5.67084 6.29816C5.78071 6.13394 5.93688 6.00596 6.11959 5.93039C6.3023 5.85482 6.50334 5.83506 6.69729 5.87362C6.89125 5.91217 7.06939 6.0073 7.20921 6.14698C7.39664 6.33424 7.50194 6.58818 7.50194 6.85296C7.50194 7.11773 7.39664 7.37167 7.20921 7.55893ZM10.0807 5.93729C9.88292 5.93729 9.68962 5.87872 9.5252 5.769C9.36078 5.65928 9.23263 5.50333 9.15696 5.32087C9.08129 5.13841 9.06149 4.93763 9.10007 4.74393C9.13864 4.55023 9.23387 4.37231 9.37369 4.23266C9.51352 4.09301 9.69167 3.99791 9.88561 3.95938C10.0796 3.92085 10.2806 3.94063 10.4633 4.0162C10.646 4.09178 10.8021 4.21977 10.912 4.38398C11.0218 4.54819 11.0805 4.74125 11.0805 4.93874C11.0805 5.20357 10.9751 5.45756 10.7876 5.64482C10.6001 5.83208 10.3458 5.93729 10.0807 5.93729ZM14.2079 7.55893C14.0681 7.69861 13.8899 7.79374 13.696 7.83229C13.502 7.87085 13.301 7.85109 13.1183 7.77552C12.9356 7.69995 12.7794 7.57197 12.6695 7.40775C12.5596 7.24353 12.501 7.05046 12.501 6.85296C12.501 6.65545 12.5596 6.46238 12.6695 6.29816C12.7794 6.13394 12.9356 6.00596 13.1183 5.93039C13.301 5.85482 13.502 5.83506 13.696 5.87362C13.8899 5.91217 14.0681 6.0073 14.2079 6.14698C14.3953 6.33424 14.5006 6.58818 14.5006 6.85296C14.5006 7.11773 14.3953 7.37167 14.2079 7.55893Z" fill="#1A56DB"/>
</g>
<defs>
<clipPath id="clip0_8_45661">
<rect width="20" height="20" fill="white" transform="translate(0 0.333374)"/>
</clipPath>
</defs>
</svg>
