<svg width="56" height="57" viewBox="0 0 56 57" fill="none" xmlns="http://www.w3.org/2000/svg">
<path d="M28 56.0835C22.4621 56.0835 17.0486 54.4413 12.444 51.3646C7.83947 48.288 4.25064 43.915 2.13139 38.7986C0.012132 33.6823 -0.542361 28.0524 0.538025 22.621C1.61841 17.1895 4.28515 12.2004 8.20102 8.28452C12.1169 4.36865 17.106 1.70191 22.5375 0.621521C27.9689 -0.458865 33.5988 0.095628 38.7151 2.21488C43.8315 4.33413 48.2045 7.92296 51.2811 12.5275C54.3578 17.1321 56 22.5456 56 28.0835C55.9918 35.5071 53.0392 42.6242 47.79 47.8735C42.5407 53.1227 35.4236 56.0753 28 56.0835ZM28 5.68351C23.5697 5.68351 19.2389 6.99725 15.5552 9.45859C11.8716 11.9199 9.00051 15.4183 7.30511 19.5114C5.60971 23.6045 5.16611 28.1084 6.03042 32.4535C6.89473 36.7987 9.02812 40.79 12.1608 43.9227C15.2935 47.0554 19.2848 49.1888 23.63 50.0531C27.9752 50.9174 32.479 50.4738 36.5721 48.7784C40.6652 47.083 44.1636 44.2119 46.6249 40.5283C49.0863 36.8446 50.4 32.5138 50.4 28.0835C50.3933 22.1447 48.0312 16.451 43.8318 12.2517C39.6325 8.05231 33.9388 5.69018 28 5.68351Z" fill="#0F6937"/>
<path d="M28 36.4835C27.2574 36.4835 26.5452 36.1885 26.0201 35.6634C25.495 35.1383 25.2 34.4261 25.2 33.6835V29.7131C25.2 29.3361 25.2761 28.9629 25.4238 28.616C25.5715 28.2691 25.7878 27.9556 26.0596 27.6943C26.3294 27.4314 26.6502 27.2267 27.0023 27.0928C27.3543 26.9589 27.7301 26.8987 28.1064 26.9159C28.6477 26.9355 29.1874 26.8456 29.6931 26.6514C30.1988 26.4573 30.6601 26.163 31.0492 25.7861C31.4383 25.4093 31.7473 24.9577 31.9575 24.4585C32.1678 23.9593 32.275 23.4228 32.2728 22.8811C32.3159 21.7672 31.9147 20.6818 31.1575 19.8637C30.4003 19.0456 29.3491 18.5618 28.2352 18.5187C27.1213 18.4756 26.0359 18.8768 25.2178 19.634C24.3997 20.3912 23.9159 21.4424 23.8728 22.5563C23.864 22.9253 23.7812 23.2887 23.6295 23.6251C23.4777 23.9616 23.2601 24.2642 22.9894 24.515C22.7187 24.7659 22.4004 24.9599 22.0534 25.0857C21.7064 25.2114 21.3378 25.2663 20.9692 25.2471C20.2279 25.218 19.5285 24.8958 19.0245 24.3514C18.5205 23.807 18.2532 23.0848 18.2812 22.3435C18.3607 20.5429 18.9352 18.7992 19.9415 17.304C20.9478 15.8088 22.347 14.62 23.9851 13.8685C25.6232 13.1169 27.4369 12.8316 29.2266 13.044C31.0164 13.2565 32.7129 13.9583 34.1296 15.0724C35.5463 16.1865 36.6283 17.6697 37.2567 19.3589C37.8851 21.0482 38.0355 22.8779 37.6913 24.6471C37.3472 26.4162 36.5218 28.0562 35.306 29.3867C34.0902 30.7171 32.5311 31.6865 30.8 32.1883V33.6835C30.8 34.4261 30.505 35.1383 29.9799 35.6634C29.4548 36.1885 28.7426 36.4835 28 36.4835Z" fill="#0F6937"/>
<path d="M28 44.8835C29.5464 44.8835 30.8 43.6299 30.8 42.0835C30.8 40.5371 29.5464 39.2835 28 39.2835C26.4536 39.2835 25.2 40.5371 25.2 42.0835C25.2 43.6299 26.4536 44.8835 28 44.8835Z" fill="#0F6937"/>
</svg>
