<svg width="17" height="17" viewBox="0 0 17 17" fill="none" xmlns="http://www.w3.org/2000/svg">
<rect x="0.5" y="0.5" width="16" height="16" rx="4" fill="#0F6937"/>
<g clip-path="url(#clip0_1377_7938)">
<mask id="path-2-inside-1_1377_7938" fill="white">
<path d="M7.0777 12.6668C6.9145 12.6676 6.75752 12.5909 6.64033 12.4532L3.68872 8.98139C3.62989 8.91176 3.58295 8.82878 3.55057 8.73716C3.5182 8.64555 3.50103 8.5471 3.50005 8.44745C3.49805 8.24618 3.5621 8.0522 3.6781 7.90817C3.7941 7.76415 3.95254 7.68188 4.11858 7.67946C4.28462 7.67705 4.44464 7.75469 4.56346 7.8953L7.0802 10.8544L12.4361 4.54917C12.5551 4.40856 12.7153 4.331 12.8814 4.33356C13.0476 4.33611 13.2061 4.41858 13.3221 4.5628C13.4381 4.70703 13.5021 4.9012 13.5 5.10261C13.4978 5.30402 13.4298 5.49616 13.3108 5.63677L7.51507 12.4532C7.39789 12.5909 7.24091 12.6676 7.0777 12.6668Z"/>
</mask>
<path d="M7.0777 12.6668C6.9145 12.6676 6.75752 12.5909 6.64033 12.4532L3.68872 8.98139C3.62989 8.91176 3.58295 8.82878 3.55057 8.73716C3.5182 8.64555 3.50103 8.5471 3.50005 8.44745C3.49805 8.24618 3.5621 8.0522 3.6781 7.90817C3.7941 7.76415 3.95254 7.68188 4.11858 7.67946C4.28462 7.67705 4.44464 7.75469 4.56346 7.8953L7.0802 10.8544L12.4361 4.54917C12.5551 4.40856 12.7153 4.331 12.8814 4.33356C13.0476 4.33611 13.2061 4.41858 13.3221 4.5628C13.4381 4.70703 13.5021 4.9012 13.5 5.10261C13.4978 5.30402 13.4298 5.49616 13.3108 5.63677L7.51507 12.4532C7.39789 12.5909 7.24091 12.6676 7.0777 12.6668Z" fill="#1F2A37"/>
<path d="M7.0777 12.6668L7.08488 11.1668L7.0777 11.1668L7.07052 11.1668L7.0777 12.6668ZM6.64033 12.4532L5.49751 13.4248L5.49797 13.4254L6.64033 12.4532ZM3.68872 8.98139L2.54298 9.94953L2.5459 9.95296L3.68872 8.98139ZM3.50005 8.44745L2.00012 8.46229L3.50005 8.44745ZM4.56346 7.8953L3.41772 8.86344L3.42084 8.86711L4.56346 7.8953ZM7.0802 10.8544L5.93758 11.8262L7.08092 13.1705L8.22343 11.8255L7.0802 10.8544ZM12.4361 4.54917L13.5793 5.52027L13.5812 5.51809L12.4361 4.54917ZM13.3108 5.63677L14.4536 6.60842L14.4559 6.6057L13.3108 5.63677ZM7.51507 12.4532L8.65744 13.4254L8.65783 13.4249L7.51507 12.4532ZM7.07052 11.1668C7.40071 11.1653 7.64814 11.323 7.7827 11.4811L5.49797 13.4254C5.8669 13.8589 6.42828 14.1699 7.08488 14.1668L7.07052 11.1668ZM7.78316 11.4817L4.83154 8.00981L2.5459 9.95296L5.49751 13.4248L7.78316 11.4817ZM4.83445 8.01325C4.90028 8.09115 4.94081 8.16931 4.96487 8.2374L2.13628 9.23692C2.22508 9.48824 2.3595 9.73238 2.54299 9.94953L4.83445 8.01325ZM4.96487 8.2374C4.98898 8.30562 4.99937 8.37131 4.99997 8.4326L2.00012 8.46229C2.0027 8.72289 2.04743 8.98548 2.13628 9.23692L4.96487 8.2374ZM4.99997 8.4326C5.00109 8.54582 4.968 8.69797 4.84632 8.84906L2.50988 6.96729C2.1562 7.40642 1.99501 7.94654 2.00012 8.46229L4.99997 8.4326ZM4.84632 8.84906C4.7183 9.008 4.4749 9.17444 4.14039 9.17931L4.09677 6.17962C3.43018 6.18932 2.86989 6.52029 2.50988 6.96729L4.84632 8.84906ZM4.14039 9.17931C3.80477 9.18419 3.55317 9.02372 3.41772 8.86344L5.70919 6.92716C5.33612 6.48565 4.76446 6.16991 4.09677 6.17962L4.14039 9.17931ZM3.42084 8.86711L5.93758 11.8262L8.22282 9.88259L5.70608 6.92349L3.42084 8.86711ZM8.22343 11.8255L13.5793 5.52027L11.2929 3.57807L5.93698 9.8833L8.22343 11.8255ZM13.5812 5.51809C13.4456 5.67832 13.1939 5.83854 12.8583 5.83338L12.9045 2.83373C12.2367 2.82346 11.6646 3.1388 11.291 3.58024L13.5812 5.51809ZM12.8583 5.83338C12.524 5.82824 12.2809 5.66169 12.1532 5.50289L14.4909 3.62271C14.1312 3.17546 13.5712 2.84399 12.9045 2.83373L12.8583 5.83338ZM12.1532 5.50289C12.0318 5.35193 11.9988 5.19998 12 5.0869L14.9999 5.11832C15.0053 4.60242 14.8443 4.06212 14.4909 3.62271L12.1532 5.50289ZM12 5.0869C12.0012 4.97393 12.0374 4.81949 12.1658 4.66785L14.4559 6.6057C14.8222 6.17283 14.9945 5.63411 14.9999 5.11832L12 5.0869ZM12.1681 4.66513L6.37231 11.4816L8.65783 13.4249L14.4536 6.60842L12.1681 4.66513ZM6.37271 11.4811C6.50727 11.323 6.75469 11.1653 7.08488 11.1668L7.07052 14.1668C7.72713 14.1699 8.28851 13.8589 8.65744 13.4254L6.37271 11.4811Z" fill="white" mask="url(#path-2-inside-1_1377_7938)"/>
</g>
<rect x="0.5" y="0.5" width="16" height="16" rx="4" stroke="#0F6937" stroke-width="0.5"/>
<defs>
<clipPath id="clip0_1377_7938">
<rect width="10" height="10" fill="white" transform="translate(3.5 3.5)"/>
</clipPath>
</defs>
</svg>
