<svg width="20" height="21" viewBox="0 0 20 21" fill="none" xmlns="http://www.w3.org/2000/svg">
<path d="M10 0.5C8.02219 0.5 6.08879 1.08649 4.4443 2.1853C2.79981 3.28412 1.51809 4.8459 0.761209 6.67316C0.00433282 8.50042 -0.1937 10.5111 0.192152 12.4509C0.578004 14.3907 1.53041 16.1725 2.92894 17.5711C4.32746 18.9696 6.10929 19.922 8.0491 20.3078C9.98891 20.6937 11.9996 20.4957 13.8268 19.7388C15.6541 18.9819 17.2159 17.7002 18.3147 16.0557C19.4135 14.4112 20 12.4778 20 10.5C19.9969 7.84877 18.9424 5.30702 17.0677 3.43232C15.193 1.55762 12.6512 0.503065 10 0.5ZM14.4653 11.5526H11.0526V14.9653C11.0526 15.2444 10.9417 15.5122 10.7443 15.7096C10.5469 15.907 10.2792 16.0179 10 16.0179C9.72083 16.0179 9.45309 15.907 9.25568 15.7096C9.05827 15.5122 8.94737 15.2444 8.94737 14.9653V11.5526H5.53474C5.25557 11.5526 4.98782 11.4417 4.79042 11.2443C4.59301 11.0469 4.48211 10.7792 4.48211 10.5C4.48211 10.2208 4.59301 9.95308 4.79042 9.75567C4.98782 9.55827 5.25557 9.44737 5.53474 9.44737H8.94737V6.03474C8.94737 5.75556 9.05827 5.48782 9.25568 5.29041C9.45309 5.09301 9.72083 4.9821 10 4.9821C10.2792 4.9821 10.5469 5.09301 10.7443 5.29041C10.9417 5.48782 11.0526 5.75556 11.0526 6.03474V9.44737H14.4653C14.7444 9.44737 15.0122 9.55827 15.2096 9.75567C15.407 9.95308 15.5179 10.2208 15.5179 10.5C15.5179 10.7792 15.407 11.0469 15.2096 11.2443C15.0122 11.4417 14.7444 11.5526 14.4653 11.5526Z" fill="#0F6937"/>
</svg>
