<svg width="13" height="12" viewBox="0 0 13 12" fill="none" xmlns="http://www.w3.org/2000/svg">
<path d="M6.5 0C5.31331 0 4.15328 0.351894 3.16658 1.01118C2.17989 1.67047 1.41085 2.60754 0.956725 3.7039C0.5026 4.80025 0.38378 6.00665 0.615291 7.17054C0.846802 8.33443 1.41825 9.40352 2.25736 10.2426C3.09648 11.0818 4.16557 11.6532 5.32946 11.8847C6.49335 12.1162 7.69975 11.9974 8.7961 11.5433C9.89246 11.0891 10.8295 10.3201 11.4888 9.33342C12.1481 8.34672 12.5 7.18669 12.5 6C12.4983 4.40924 11.8656 2.88413 10.7407 1.75929C9.61587 0.634449 8.09076 0.00174696 6.5 0ZM6.2 2.4C6.37801 2.4 6.55201 2.45278 6.70002 2.55168C6.84802 2.65057 6.96337 2.79113 7.03149 2.95558C7.09961 3.12004 7.11744 3.301 7.08271 3.47558C7.04798 3.65016 6.96227 3.81053 6.8364 3.9364C6.71053 4.06226 6.55017 4.14798 6.37558 4.18271C6.201 4.21743 6.02004 4.19961 5.85559 4.13149C5.69113 4.06337 5.55057 3.94802 5.45168 3.80001C5.35279 3.65201 5.3 3.478 5.3 3.3C5.3 3.0613 5.39482 2.83239 5.56361 2.6636C5.73239 2.49482 5.96131 2.4 6.2 2.4ZM7.7 9H5.3C5.14087 9 4.98826 8.93678 4.87574 8.82426C4.76322 8.71174 4.7 8.55913 4.7 8.4C4.7 8.24087 4.76322 8.08826 4.87574 7.97573C4.98826 7.86321 5.14087 7.8 5.3 7.8H5.9V6H5.3C5.14087 6 4.98826 5.93678 4.87574 5.82426C4.76322 5.71174 4.7 5.55913 4.7 5.4C4.7 5.24087 4.76322 5.08826 4.87574 4.97573C4.98826 4.86321 5.14087 4.8 5.3 4.8H6.5C6.65913 4.8 6.81174 4.86321 6.92427 4.97573C7.03679 5.08826 7.1 5.24087 7.1 5.4V7.8H7.7C7.85913 7.8 8.01174 7.86321 8.12427 7.97573C8.23679 8.08826 8.3 8.24087 8.3 8.4C8.3 8.55913 8.23679 8.71174 8.12427 8.82426C8.01174 8.93678 7.85913 9 7.7 9Z" fill="#9CA3AF"/>
</svg>
