<svg width="21" height="20" viewBox="0 0 21 20" fill="none" xmlns="http://www.w3.org/2000/svg">
<path d="M15.457 4.40371L11.457 0.301308C11.3641 0.205798 11.2538 0.130021 11.1323 0.0783172C11.0108 0.0266138 10.8805 0 10.749 0C10.6175 0 10.4872 0.0266138 10.3657 0.0783172C10.2442 0.130021 10.1339 0.205798 10.041 0.301308L6.041 4.40371C5.85349 4.59629 5.74826 4.85737 5.74844 5.12953C5.74863 5.40169 5.85423 5.66262 6.042 5.85493C6.22977 6.04724 6.48434 6.15517 6.74971 6.15498C7.01507 6.15478 7.26949 6.04648 7.457 5.8539L9.75 3.5022V12.308C9.75 12.58 9.85536 12.8409 10.0429 13.0332C10.2304 13.2255 10.4848 13.3336 10.75 13.3336C11.0152 13.3336 11.2696 13.2255 11.4571 13.0332C11.6446 12.8409 11.75 12.58 11.75 12.308V3.5022L14.043 5.8539C14.2316 6.04073 14.4842 6.1441 14.7464 6.14176C15.0086 6.13943 15.2594 6.03157 15.4448 5.84141C15.6302 5.65126 15.7354 5.39402 15.7377 5.12511C15.74 4.85621 15.6392 4.59714 15.457 4.40371Z" fill="#6B7280"/>
<path d="M18.75 11.7952H13.75V12.308C13.75 13.124 13.4339 13.9066 12.8713 14.4836C12.3087 15.0606 11.5456 15.3848 10.75 15.3848C9.95435 15.3848 9.19129 15.0606 8.62868 14.4836C8.06607 13.9066 7.75 13.124 7.75 12.308V11.7952H2.75C2.21957 11.7952 1.71086 12.0113 1.33579 12.396C0.960714 12.7807 0.75 13.3024 0.75 13.8464V17.9488C0.75 18.4928 0.960714 19.0145 1.33579 19.3992C1.71086 19.7839 2.21957 20 2.75 20H18.75C19.2804 20 19.7891 19.7839 20.1642 19.3992C20.5393 19.0145 20.75 18.4928 20.75 17.9488V13.8464C20.75 13.3024 20.5393 12.7807 20.1642 12.396C19.7891 12.0113 19.2804 11.7952 18.75 11.7952ZM16.25 17.9488C15.9533 17.9488 15.6633 17.8586 15.4166 17.6895C15.17 17.5205 14.9777 17.2802 14.8642 16.9991C14.7507 16.718 14.7209 16.4087 14.7788 16.1103C14.8367 15.8119 14.9796 15.5377 15.1893 15.3226C15.3991 15.1074 15.6664 14.9609 15.9574 14.9016C16.2483 14.8422 16.5499 14.8727 16.824 14.9891C17.0981 15.1055 17.3324 15.3027 17.4972 15.5557C17.662 15.8087 17.75 16.1061 17.75 16.4104C17.75 16.8184 17.592 17.2097 17.3107 17.4982C17.0294 17.7867 16.6478 17.9488 16.25 17.9488Z" fill="#6B7280"/>
</svg>
