<svg width="16" height="17" viewBox="0 0 16 17" fill="none" xmlns="http://www.w3.org/2000/svg">
<g clip-path="url(#clip0_96_1867)">
<mask id="path-1-inside-1_96_1867" fill="white">
<path d="M0 14.9C0 15.3243 0.168571 15.7313 0.468629 16.0314C0.768687 16.3314 1.17565 16.5 1.6 16.5H14.4C14.8243 16.5 15.2313 16.3314 15.5314 16.0314C15.8314 15.7313 16 15.3243 16 14.9V6.9H0V14.9ZM11.2 8.9C11.2 8.79391 11.2421 8.69217 11.3172 8.61716C11.3922 8.54214 11.4939 8.5 11.6 8.5H12.4C12.5061 8.5 12.6078 8.54214 12.6828 8.61716C12.7579 8.69217 12.8 8.79391 12.8 8.9V9.7C12.8 9.80609 12.7579 9.90783 12.6828 9.98284C12.6078 10.0579 12.5061 10.1 12.4 10.1H11.6C11.4939 10.1 11.3922 10.0579 11.3172 9.98284C11.2421 9.90783 11.2 9.80609 11.2 9.7V8.9ZM11.2 12.1C11.2 11.9939 11.2421 11.8922 11.3172 11.8172C11.3922 11.7421 11.4939 11.7 11.6 11.7H12.4C12.5061 11.7 12.6078 11.7421 12.6828 11.8172C12.7579 11.8922 12.8 11.9939 12.8 12.1V12.9C12.8 13.0061 12.7579 13.1078 12.6828 13.1828C12.6078 13.2579 12.5061 13.3 12.4 13.3H11.6C11.4939 13.3 11.3922 13.2579 11.3172 13.1828C11.2421 13.1078 11.2 13.0061 11.2 12.9V12.1ZM7.2 8.9C7.2 8.79391 7.24214 8.69217 7.31716 8.61716C7.39217 8.54214 7.49391 8.5 7.6 8.5H8.4C8.50609 8.5 8.60783 8.54214 8.68284 8.61716C8.75786 8.69217 8.8 8.79391 8.8 8.9V9.7C8.8 9.80609 8.75786 9.90783 8.68284 9.98284C8.60783 10.0579 8.50609 10.1 8.4 10.1H7.6C7.49391 10.1 7.39217 10.0579 7.31716 9.98284C7.24214 9.90783 7.2 9.80609 7.2 9.7V8.9ZM7.2 12.1C7.2 11.9939 7.24214 11.8922 7.31716 11.8172C7.39217 11.7421 7.49391 11.7 7.6 11.7H8.4C8.50609 11.7 8.60783 11.7421 8.68284 11.8172C8.75786 11.8922 8.8 11.9939 8.8 12.1V12.9C8.8 13.0061 8.75786 13.1078 8.68284 13.1828C8.60783 13.2579 8.50609 13.3 8.4 13.3H7.6C7.49391 13.3 7.39217 13.2579 7.31716 13.1828C7.24214 13.1078 7.2 13.0061 7.2 12.9V12.1ZM3.2 8.9C3.2 8.79391 3.24214 8.69217 3.31716 8.61716C3.39217 8.54214 3.49391 8.5 3.6 8.5H4.4C4.50609 8.5 4.60783 8.54214 4.68284 8.61716C4.75786 8.69217 4.8 8.79391 4.8 8.9V9.7C4.8 9.80609 4.75786 9.90783 4.68284 9.98284C4.60783 10.0579 4.50609 10.1 4.4 10.1H3.6C3.49391 10.1 3.39217 10.0579 3.31716 9.98284C3.24214 9.90783 3.2 9.80609 3.2 9.7V8.9ZM3.2 12.1C3.2 11.9939 3.24214 11.8922 3.31716 11.8172C3.39217 11.7421 3.49391 11.7 3.6 11.7H4.4C4.50609 11.7 4.60783 11.7421 4.68284 11.8172C4.75786 11.8922 4.8 11.9939 4.8 12.1V12.9C4.8 13.0061 4.75786 13.1078 4.68284 13.1828C4.60783 13.2579 4.50609 13.3 4.4 13.3H3.6C3.49391 13.3 3.39217 13.2579 3.31716 13.1828C3.24214 13.1078 3.2 13.0061 3.2 12.9V12.1Z"/>
<path d="M16 3.7C16 3.27565 15.8314 2.86869 15.5314 2.56863C15.2313 2.26857 14.8243 2.1 14.4 2.1H12.8V1.3C12.8 1.08783 12.7157 0.884344 12.5657 0.734315C12.4157 0.584285 12.2122 0.5 12 0.5C11.7878 0.5 11.5843 0.584285 11.4343 0.734315C11.2843 0.884344 11.2 1.08783 11.2 1.3V2.1H8.8V1.3C8.8 1.08783 8.71571 0.884344 8.56569 0.734315C8.41566 0.584285 8.21217 0.5 8 0.5C7.78783 0.5 7.58434 0.584285 7.43431 0.734315C7.28429 0.884344 7.2 1.08783 7.2 1.3V2.1H4.8V1.3C4.8 1.08783 4.71571 0.884344 4.56569 0.734315C4.41566 0.584285 4.21217 0.5 4 0.5C3.78783 0.5 3.58434 0.584285 3.43431 0.734315C3.28429 0.884344 3.2 1.08783 3.2 1.3V2.1H1.6C1.17565 2.1 0.768687 2.26857 0.468629 2.56863C0.168571 2.86869 0 3.27565 0 3.7V5.3H16V3.7Z"/>
</mask>
<path d="M0 14.9C0 15.3243 0.168571 15.7313 0.468629 16.0314C0.768687 16.3314 1.17565 16.5 1.6 16.5H14.4C14.8243 16.5 15.2313 16.3314 15.5314 16.0314C15.8314 15.7313 16 15.3243 16 14.9V6.9H0V14.9ZM11.2 8.9C11.2 8.79391 11.2421 8.69217 11.3172 8.61716C11.3922 8.54214 11.4939 8.5 11.6 8.5H12.4C12.5061 8.5 12.6078 8.54214 12.6828 8.61716C12.7579 8.69217 12.8 8.79391 12.8 8.9V9.7C12.8 9.80609 12.7579 9.90783 12.6828 9.98284C12.6078 10.0579 12.5061 10.1 12.4 10.1H11.6C11.4939 10.1 11.3922 10.0579 11.3172 9.98284C11.2421 9.90783 11.2 9.80609 11.2 9.7V8.9ZM11.2 12.1C11.2 11.9939 11.2421 11.8922 11.3172 11.8172C11.3922 11.7421 11.4939 11.7 11.6 11.7H12.4C12.5061 11.7 12.6078 11.7421 12.6828 11.8172C12.7579 11.8922 12.8 11.9939 12.8 12.1V12.9C12.8 13.0061 12.7579 13.1078 12.6828 13.1828C12.6078 13.2579 12.5061 13.3 12.4 13.3H11.6C11.4939 13.3 11.3922 13.2579 11.3172 13.1828C11.2421 13.1078 11.2 13.0061 11.2 12.9V12.1ZM7.2 8.9C7.2 8.79391 7.24214 8.69217 7.31716 8.61716C7.39217 8.54214 7.49391 8.5 7.6 8.5H8.4C8.50609 8.5 8.60783 8.54214 8.68284 8.61716C8.75786 8.69217 8.8 8.79391 8.8 8.9V9.7C8.8 9.80609 8.75786 9.90783 8.68284 9.98284C8.60783 10.0579 8.50609 10.1 8.4 10.1H7.6C7.49391 10.1 7.39217 10.0579 7.31716 9.98284C7.24214 9.90783 7.2 9.80609 7.2 9.7V8.9ZM7.2 12.1C7.2 11.9939 7.24214 11.8922 7.31716 11.8172C7.39217 11.7421 7.49391 11.7 7.6 11.7H8.4C8.50609 11.7 8.60783 11.7421 8.68284 11.8172C8.75786 11.8922 8.8 11.9939 8.8 12.1V12.9C8.8 13.0061 8.75786 13.1078 8.68284 13.1828C8.60783 13.2579 8.50609 13.3 8.4 13.3H7.6C7.49391 13.3 7.39217 13.2579 7.31716 13.1828C7.24214 13.1078 7.2 13.0061 7.2 12.9V12.1ZM3.2 8.9C3.2 8.79391 3.24214 8.69217 3.31716 8.61716C3.39217 8.54214 3.49391 8.5 3.6 8.5H4.4C4.50609 8.5 4.60783 8.54214 4.68284 8.61716C4.75786 8.69217 4.8 8.79391 4.8 8.9V9.7C4.8 9.80609 4.75786 9.90783 4.68284 9.98284C4.60783 10.0579 4.50609 10.1 4.4 10.1H3.6C3.49391 10.1 3.39217 10.0579 3.31716 9.98284C3.24214 9.90783 3.2 9.80609 3.2 9.7V8.9ZM3.2 12.1C3.2 11.9939 3.24214 11.8922 3.31716 11.8172C3.39217 11.7421 3.49391 11.7 3.6 11.7H4.4C4.50609 11.7 4.60783 11.7421 4.68284 11.8172C4.75786 11.8922 4.8 11.9939 4.8 12.1V12.9C4.8 13.0061 4.75786 13.1078 4.68284 13.1828C4.60783 13.2579 4.50609 13.3 4.4 13.3H3.6C3.49391 13.3 3.39217 13.2579 3.31716 13.1828C3.24214 13.1078 3.2 13.0061 3.2 12.9V12.1Z" fill="#6B7280"/>
<path d="M16 3.7C16 3.27565 15.8314 2.86869 15.5314 2.56863C15.2313 2.26857 14.8243 2.1 14.4 2.1H12.8V1.3C12.8 1.08783 12.7157 0.884344 12.5657 0.734315C12.4157 0.584285 12.2122 0.5 12 0.5C11.7878 0.5 11.5843 0.584285 11.4343 0.734315C11.2843 0.884344 11.2 1.08783 11.2 1.3V2.1H8.8V1.3C8.8 1.08783 8.71571 0.884344 8.56569 0.734315C8.41566 0.584285 8.21217 0.5 8 0.5C7.78783 0.5 7.58434 0.584285 7.43431 0.734315C7.28429 0.884344 7.2 1.08783 7.2 1.3V2.1H4.8V1.3C4.8 1.08783 4.71571 0.884344 4.56569 0.734315C4.41566 0.584285 4.21217 0.5 4 0.5C3.78783 0.5 3.58434 0.584285 3.43431 0.734315C3.28429 0.884344 3.2 1.08783 3.2 1.3V2.1H1.6C1.17565 2.1 0.768687 2.26857 0.468629 2.56863C0.168571 2.86869 0 3.27565 0 3.7V5.3H16V3.7Z" fill="#6B7280"/>
<path d="M0 14.9C0 15.3243 0.168571 15.7313 0.468629 16.0314C0.768687 16.3314 1.17565 16.5 1.6 16.5H14.4C14.8243 16.5 15.2313 16.3314 15.5314 16.0314C15.8314 15.7313 16 15.3243 16 14.9V6.9H0V14.9ZM11.2 8.9C11.2 8.79391 11.2421 8.69217 11.3172 8.61716C11.3922 8.54214 11.4939 8.5 11.6 8.5H12.4C12.5061 8.5 12.6078 8.54214 12.6828 8.61716C12.7579 8.69217 12.8 8.79391 12.8 8.9V9.7C12.8 9.80609 12.7579 9.90783 12.6828 9.98284C12.6078 10.0579 12.5061 10.1 12.4 10.1H11.6C11.4939 10.1 11.3922 10.0579 11.3172 9.98284C11.2421 9.90783 11.2 9.80609 11.2 9.7V8.9ZM11.2 12.1C11.2 11.9939 11.2421 11.8922 11.3172 11.8172C11.3922 11.7421 11.4939 11.7 11.6 11.7H12.4C12.5061 11.7 12.6078 11.7421 12.6828 11.8172C12.7579 11.8922 12.8 11.9939 12.8 12.1V12.9C12.8 13.0061 12.7579 13.1078 12.6828 13.1828C12.6078 13.2579 12.5061 13.3 12.4 13.3H11.6C11.4939 13.3 11.3922 13.2579 11.3172 13.1828C11.2421 13.1078 11.2 13.0061 11.2 12.9V12.1ZM7.2 8.9C7.2 8.79391 7.24214 8.69217 7.31716 8.61716C7.39217 8.54214 7.49391 8.5 7.6 8.5H8.4C8.50609 8.5 8.60783 8.54214 8.68284 8.61716C8.75786 8.69217 8.8 8.79391 8.8 8.9V9.7C8.8 9.80609 8.75786 9.90783 8.68284 9.98284C8.60783 10.0579 8.50609 10.1 8.4 10.1H7.6C7.49391 10.1 7.39217 10.0579 7.31716 9.98284C7.24214 9.90783 7.2 9.80609 7.2 9.7V8.9ZM7.2 12.1C7.2 11.9939 7.24214 11.8922 7.31716 11.8172C7.39217 11.7421 7.49391 11.7 7.6 11.7H8.4C8.50609 11.7 8.60783 11.7421 8.68284 11.8172C8.75786 11.8922 8.8 11.9939 8.8 12.1V12.9C8.8 13.0061 8.75786 13.1078 8.68284 13.1828C8.60783 13.2579 8.50609 13.3 8.4 13.3H7.6C7.49391 13.3 7.39217 13.2579 7.31716 13.1828C7.24214 13.1078 7.2 13.0061 7.2 12.9V12.1ZM3.2 8.9C3.2 8.79391 3.24214 8.69217 3.31716 8.61716C3.39217 8.54214 3.49391 8.5 3.6 8.5H4.4C4.50609 8.5 4.60783 8.54214 4.68284 8.61716C4.75786 8.69217 4.8 8.79391 4.8 8.9V9.7C4.8 9.80609 4.75786 9.90783 4.68284 9.98284C4.60783 10.0579 4.50609 10.1 4.4 10.1H3.6C3.49391 10.1 3.39217 10.0579 3.31716 9.98284C3.24214 9.90783 3.2 9.80609 3.2 9.7V8.9ZM3.2 12.1C3.2 11.9939 3.24214 11.8922 3.31716 11.8172C3.39217 11.7421 3.49391 11.7 3.6 11.7H4.4C4.50609 11.7 4.60783 11.7421 4.68284 11.8172C4.75786 11.8922 4.8 11.9939 4.8 12.1V12.9C4.8 13.0061 4.75786 13.1078 4.68284 13.1828C4.60783 13.2579 4.50609 13.3 4.4 13.3H3.6C3.49391 13.3 3.39217 13.2579 3.31716 13.1828C3.24214 13.1078 3.2 13.0061 3.2 12.9V12.1Z" stroke="#6B7280" stroke-width="2" mask="url(#path-1-inside-1_96_1867)"/>
<path d="M16 3.7C16 3.27565 15.8314 2.86869 15.5314 2.56863C15.2313 2.26857 14.8243 2.1 14.4 2.1H12.8V1.3C12.8 1.08783 12.7157 0.884344 12.5657 0.734315C12.4157 0.584285 12.2122 0.5 12 0.5C11.7878 0.5 11.5843 0.584285 11.4343 0.734315C11.2843 0.884344 11.2 1.08783 11.2 1.3V2.1H8.8V1.3C8.8 1.08783 8.71571 0.884344 8.56569 0.734315C8.41566 0.584285 8.21217 0.5 8 0.5C7.78783 0.5 7.58434 0.584285 7.43431 0.734315C7.28429 0.884344 7.2 1.08783 7.2 1.3V2.1H4.8V1.3C4.8 1.08783 4.71571 0.884344 4.56569 0.734315C4.41566 0.584285 4.21217 0.5 4 0.5C3.78783 0.5 3.58434 0.584285 3.43431 0.734315C3.28429 0.884344 3.2 1.08783 3.2 1.3V2.1H1.6C1.17565 2.1 0.768687 2.26857 0.468629 2.56863C0.168571 2.86869 0 3.27565 0 3.7V5.3H16V3.7Z" stroke="#6B7280" stroke-width="2" mask="url(#path-1-inside-1_96_1867)"/>
</g>
<defs>
<clipPath id="clip0_96_1867">
<rect width="16" height="16" fill="white" transform="translate(0 0.5)"/>
</clipPath>
</defs>
</svg>
