<svg width="17" height="21" viewBox="0 0 17 21" fill="none" xmlns="http://www.w3.org/2000/svg">
<path d="M5.37493 5.5V0.63C4.86665 0.764979 4.40293 1.02286 4.02809 1.379L1.08235 4.207C0.71212 4.56739 0.443617 5.01238 0.30216 5.5H5.37493Z" fill="#9CA3AF"/>
<path d="M14.8184 0.5H7.4582V5.5C7.4582 6.03043 7.23871 6.53914 6.84802 6.91421C6.45733 7.28929 5.92745 7.5 5.37493 7.5H0.166747V18.5C0.158385 19.0215 0.365756 19.5248 0.743392 19.8998C1.12103 20.2747 1.63811 20.4905 2.18127 20.5H14.8184C15.3616 20.4905 15.8786 20.2747 16.2563 19.8998C16.6339 19.5248 16.8413 19.0215 16.8329 18.5V2.5C16.8413 1.97853 16.6339 1.47515 16.2563 1.10024C15.8786 0.725324 15.3616 0.509469 14.8184 0.5Z" fill="#9CA3AF"/>
</svg>
