<svg width="48" height="48" viewBox="0 0 48 48" fill="none" xmlns="http://www.w3.org/2000/svg">
<path d="M0 24C0 10.7452 10.7452 0 24 0C37.2548 0 48 10.7452 48 24C48 37.2548 37.2548 48 24 48C10.7452 48 0 37.2548 0 24Z" fill="#0F6937"/>
<g clip-path="url(#clip0_1397_10203)">
<path d="M33.1272 21.8938L32.2355 21.001C32.0469 20.8133 31.9436 20.5631 31.9436 20.2979V19.0346C31.9436 17.392 30.6071 16.0553 28.9648 16.0553H27.7017C27.4406 16.0553 27.1844 15.949 26.9997 15.7643L26.107 14.8715C24.9453 13.7095 23.0567 13.7095 21.8949 14.8715L21.0003 15.7643C20.8156 15.949 20.5594 16.0553 20.2983 16.0553H19.0353C17.3929 16.0553 16.0564 17.392 16.0564 19.0346V20.2979C16.0564 20.5631 15.9531 20.8133 15.7655 21.001L14.8728 21.8928C14.3098 22.4559 14 23.2048 14 24.0002C14 24.7957 14.3108 25.5446 14.8728 26.1067L15.7645 26.9995C15.9531 27.1872 16.0564 27.4374 16.0564 27.7026V28.9659C16.0564 30.6085 17.3929 31.9452 19.0353 31.9452H20.2983C20.5594 31.9452 20.8156 32.0515 21.0003 32.2362L21.893 33.13C22.4738 33.71 23.2364 34 23.999 34C24.7616 34 25.5242 33.71 26.1051 33.129L26.9977 32.2362C27.1844 32.0515 27.4406 31.9452 27.7017 31.9452H28.9648C30.6071 31.9452 31.9436 30.6085 31.9436 28.9659V27.7026C31.9436 27.4374 32.0469 27.1872 32.2355 26.9995L33.1272 26.1077C33.6892 25.5446 34 24.7967 34 24.0002C34 23.2038 33.6902 22.4559 33.1272 21.8938ZM28.5229 22.8403L22.5652 26.8128C22.3974 26.925 22.2047 26.9796 22.0141 26.9796C21.7579 26.9796 21.5037 26.8803 21.3121 26.6886L19.3262 24.7024C18.9379 24.3141 18.9379 23.6864 19.3262 23.2981C19.7144 22.9098 20.342 22.9098 20.7302 23.2981L22.1402 24.7083L27.4207 21.1877C27.8785 20.8828 28.4941 21.006 28.7979 21.4628C29.1028 21.9197 28.9796 22.5364 28.5229 22.8403Z" fill="white"/>
</g>
<defs>
<clipPath id="clip0_1397_10203">
<rect width="20" height="20" fill="white" transform="translate(14 14)"/>
</clipPath>
</defs>
</svg>
