<svg width="49" height="48" viewBox="0 0 49 48" fill="none" xmlns="http://www.w3.org/2000/svg">
<path d="M0.5 24C0.5 10.7452 11.2452 0 24.5 0C37.7548 0 48.5 10.7452 48.5 24C48.5 37.2548 37.7548 48 24.5 48C11.2452 48 0.5 37.2548 0.5 24Z" fill="#0F6937" fill-opacity="0.1"/>
<path d="M21.3754 19V14.13C20.8671 14.265 20.4034 14.5229 20.0286 14.879L17.0828 17.707C16.7126 18.0674 16.4441 18.5124 16.3026 19H21.3754Z" fill="#0F6937"/>
<path d="M30.8189 14H23.4587V19C23.4587 19.5304 23.2392 20.0391 22.8485 20.4142C22.4578 20.7893 21.9279 21 21.3754 21H16.1672V32C16.1589 32.5215 16.3662 33.0248 16.7439 33.3998C17.1215 33.7747 17.6386 33.9905 18.1818 34H30.8189C31.362 33.9905 31.8791 33.7747 32.2568 33.3998C32.6344 33.0248 32.8418 32.5215 32.8334 32V16C32.8418 15.4785 32.6344 14.9752 32.2568 14.6002C31.8791 14.2253 31.362 14.0095 30.8189 14ZM27.694 29H21.1963C20.92 29 20.6551 28.8946 20.4597 28.7071C20.2644 28.5196 20.1546 28.2652 20.1546 28C20.1546 27.7348 20.2644 27.4804 20.4597 27.2929C20.6551 27.1054 20.92 27 21.1963 27H27.694C27.9702 27 28.2352 27.1054 28.4305 27.2929C28.6259 27.4804 28.7356 27.7348 28.7356 28C28.7356 28.2652 28.6259 28.5196 28.4305 28.7071C28.2352 28.8946 27.9702 29 27.694 29ZM27.694 25H21.1963C20.92 25 20.6551 24.8946 20.4597 24.7071C20.2644 24.5196 20.1546 24.2652 20.1546 24C20.1546 23.7348 20.2644 23.4804 20.4597 23.2929C20.6551 23.1054 20.92 23 21.1963 23H27.694C27.9702 23 28.2352 23.1054 28.4305 23.2929C28.6259 23.4804 28.7356 23.7348 28.7356 24C28.7356 24.2652 28.6259 24.5196 28.4305 24.7071C28.2352 24.8946 27.9702 25 27.694 25Z" fill="#0F6937"/>
</svg>
