<svg width="49" height="48" viewBox="0 0 49 48" fill="none" xmlns="http://www.w3.org/2000/svg">
<path d="M0.5 24C0.5 10.7452 11.2452 0 24.5 0C37.7548 0 48.5 10.7452 48.5 24C48.5 37.2548 37.7548 48 24.5 48C11.2452 48 0.5 37.2548 0.5 24Z" fill="#0F6937" fill-opacity="0.1"/>
<g clip-path="url(#clip0_1397_9975)">
<path d="M32.5247 16H20.6728C20.149 16 19.6465 16.2075 19.2761 16.5768C18.9056 16.9461 18.6975 17.447 18.6975 17.9692V18.4615H28.5741C29.4909 18.4615 30.3701 18.8246 31.0184 19.4709C31.6667 20.1172 32.0309 20.9937 32.0309 21.9077V27.8154H32.5247C33.0486 27.8154 33.551 27.6079 33.9214 27.2386C34.2919 26.8693 34.5 26.3684 34.5 25.8462V17.9692C34.5 17.447 34.2919 16.9461 33.9214 16.5768C33.551 16.2075 33.0486 16 32.5247 16Z" fill="#0F6937"/>
<path d="M22.6481 26.8308C23.1936 26.8308 23.6358 26.3899 23.6358 25.8462C23.6358 25.3024 23.1936 24.8615 22.6481 24.8615C22.1027 24.8615 21.6605 25.3024 21.6605 25.8462C21.6605 26.3899 22.1027 26.8308 22.6481 26.8308Z" fill="#0F6937"/>
<path d="M28.5741 19.6923H16.7222C16.1331 19.6931 15.5683 19.9267 15.1517 20.342C14.7352 20.7573 14.5008 21.3204 14.5 21.9077V29.7846C14.5008 30.3719 14.7352 30.935 15.1517 31.3503C15.5683 31.7656 16.1331 31.9992 16.7222 32H28.5741C29.1632 31.9992 29.728 31.7656 30.1446 31.3503C30.5611 30.935 30.7955 30.3719 30.7963 29.7846V21.9077C30.7955 21.3204 30.5611 20.7573 30.1446 20.342C29.728 19.9267 29.1632 19.6931 28.5741 19.6923ZM22.6481 28.8C22.0621 28.8 21.4893 28.6268 21.002 28.3022C20.5148 27.9776 20.135 27.5163 19.9107 26.9765C19.6865 26.4368 19.6278 25.8429 19.7421 25.2699C19.8564 24.6969 20.1386 24.1706 20.553 23.7575C20.9674 23.3444 21.4953 23.063 22.0701 22.9491C22.6449 22.8351 23.2406 22.8936 23.782 23.1172C24.3234 23.3407 24.7862 23.7193 25.1118 24.2051C25.4373 24.6908 25.6111 25.2619 25.6111 25.8462C25.6111 26.6296 25.2989 27.3809 24.7433 27.9348C24.1876 28.4888 23.434 28.8 22.6481 28.8Z" fill="#0F6937"/>
</g>
<defs>
<clipPath id="clip0_1397_9975">
<rect width="20" height="20" fill="white" transform="translate(14.5 14)"/>
</clipPath>
</defs>
</svg>
